<svg xmlns="http://www.w3.org/2000/svg" viewBox="0 0 1400 900">
  <defs><linearGradient id="sky" x1="0" x2="0" y1="0" y2="1"><stop stop-color="#dbe9df"/><stop offset="1" stop-color="#f2dcae"/></linearGradient><linearGradient id="r" x1="0" x2="1"><stop stop-color="#729fa2"/><stop offset="1" stop-color="#3f7378"/></linearGradient></defs>
  <rect width="1400" height="900" fill="url(#sky)"/>
  <path d="M0 410 190 285l180 85 240-150 225 160 230-130 335 190v460H0Z" fill="#75916c"/>
  <path d="M0 520 255 390l210 100 235-130 200 140 245-105 255 135v370H0Z" fill="#54755e"/>
  <path d="M0 730c235-120 400-139 548-59 149 80 268 55 363-37 99-95 224-112 489-61v327H0Z" fill="#879c70"/>
  <path d="M-20 850c248-189 448-227 612-112 165 115 302 71 416-45 98-100 235-123 412-70" fill="none" stroke="url(#r)" stroke-width="105" stroke-linecap="round"/>
  <g transform="translate(390 390)">
    <rect x="0" y="145" width="410" height="235" fill="#e9dfc7"/>
    <path d="m-20 158 225-153 225 153" fill="none" stroke="#2d4035" stroke-linecap="round" stroke-width="34"/>
    <rect x="163" y="235" width="85" height="145" fill="#7b4d39"/>
    <rect x="48" y="210" width="72" height="68" fill="#78a2a0"/><rect x="290" y="210" width="72" height="68" fill="#78a2a0"/>
    <path d="M285 74v-84h48v117" fill="#2d4035"/>
  </g>
  <g fill="#284d3d"><circle cx="190" cy="590" r="88"/><circle cx="1110" cy="570" r="105"/><circle cx="1260" cy="615" r="73"/></g>
</svg>
