<svg xmlns="http://www.w3.org/2000/svg" viewBox="0 0 1400 900">
  <defs><linearGradient id="bg" x1="0" x2="1" y1="0" y2="1"><stop stop-color="#27483b"/><stop offset="1" stop-color="#102d28"/></linearGradient><linearGradient id="glass" x1="0" x2="0" y1="0" y2="1"><stop stop-color="#a8d0c8"/><stop offset="1" stop-color="#4d7d78"/></linearGradient></defs>
  <rect width="1400" height="900" fill="url(#bg)"/>
  <circle cx="1100" cy="150" r="72" fill="#e9c878" opacity=".78"/>
  <g fill="#18352d"><path d="M80 720 195 185l115 535Z"/><path d="M210 720 340 95l130 625Z"/><path d="M1030 720 1160 90l130 630Z"/><path d="M1170 720 1280 230l110 490Z"/></g>
  <g fill="#416a53"><path d="M0 730 120 275l120 455Z"/><path d="M330 730 460 180l130 550Z"/><path d="M875 730 1000 185l125 545Z"/><path d="M1230 730 1350 330l120 400Z"/></g>
  <path d="M0 685c250-70 450-58 670-10 208 45 445 32 730-43v268H0Z" fill="#56725b"/>
  <g transform="translate(390 355)">
    <path d="M0 170 250 0h300v400H0Z" fill="#d8d4c6"/>
    <path d="M0 170 250 0h300" fill="none" stroke="#202d29" stroke-width="34" stroke-linejoin="round"/>
    <rect x="70" y="190" width="185" height="155" fill="url(#glass)"/>
    <rect x="280" y="145" width="215" height="200" fill="url(#glass)"/>
    <path d="M278 145v200M389 145v200M70 268h185" stroke="#dce8e4" stroke-width="8"/>
    <rect x="500" y="160" width="50" height="240" fill="#b77e53"/>
  </g>
  <path d="M480 830c150-95 301-99 457-3" fill="none" stroke="#c7bb93" stroke-width="34" stroke-linecap="round"/>
</svg>
